<mxfile host="app.diagrams.net" modified="2023-04-09T13:15:20.877Z" agent="Mozilla/5.0 (Macintosh; Intel Mac OS X 10_15_7) AppleWebKit/605.1.15 (KHTML, like Gecko) Version/16.3 Safari/605.1.15" etag="PNu9T_HGp8xBr0jJO6XL" version="21.1.5" type="github">
  <diagram name="Page-1" id="Aj_foK6qsR6giPjK3inZ">
    <mxGraphModel dx="954" dy="777" grid="1" gridSize="10" guides="1" tooltips="1" connect="1" arrows="1" fold="1" page="1" pageScale="1" pageWidth="827" pageHeight="1169" math="0" shadow="0">
      <root>
        <mxCell id="0" />
        <mxCell id="1" parent="0" />
        <mxCell id="QAk0c7moUAiWWCxVB_nO-49" value="artistes" style="shape=table;startSize=30;container=1;collapsible=1;childLayout=tableLayout;fixedRows=1;rowLines=0;fontStyle=1;align=center;resizeLast=1;html=1;fontSize=16;" vertex="1" parent="1">
          <mxGeometry x="346" width="311" height="152" as="geometry">
            <mxRectangle x="142" y="-93" width="92" height="31" as="alternateBounds" />
          </mxGeometry>
        </mxCell>
        <mxCell id="QAk0c7moUAiWWCxVB_nO-50" value="" style="shape=tableRow;horizontal=0;startSize=0;swimlaneHead=0;swimlaneBody=0;fillColor=none;collapsible=0;dropTarget=0;points=[[0,0.5],[1,0.5]];portConstraint=eastwest;top=0;left=0;right=0;bottom=1;fontSize=16;" vertex="1" parent="QAk0c7moUAiWWCxVB_nO-49">
          <mxGeometry y="30" width="311" height="30" as="geometry" />
        </mxCell>
        <mxCell id="QAk0c7moUAiWWCxVB_nO-51" value="" style="shape=partialRectangle;connectable=0;fillColor=none;top=0;left=0;bottom=0;right=0;fontStyle=1;overflow=hidden;whiteSpace=wrap;html=1;fontSize=16;" vertex="1" parent="QAk0c7moUAiWWCxVB_nO-50">
          <mxGeometry width="20" height="30" as="geometry">
            <mxRectangle width="20" height="30" as="alternateBounds" />
          </mxGeometry>
        </mxCell>
        <mxCell id="QAk0c7moUAiWWCxVB_nO-52" value="id_artistes (entier)" style="shape=partialRectangle;connectable=0;fillColor=none;top=0;left=0;bottom=0;right=0;align=left;spacingLeft=6;fontStyle=5;overflow=hidden;whiteSpace=wrap;html=1;fontSize=16;" vertex="1" parent="QAk0c7moUAiWWCxVB_nO-50">
          <mxGeometry x="20" width="291" height="30" as="geometry">
            <mxRectangle width="291" height="30" as="alternateBounds" />
          </mxGeometry>
        </mxCell>
        <mxCell id="QAk0c7moUAiWWCxVB_nO-53" value="" style="shape=tableRow;horizontal=0;startSize=0;swimlaneHead=0;swimlaneBody=0;fillColor=none;collapsible=0;dropTarget=0;points=[[0,0.5],[1,0.5]];portConstraint=eastwest;top=0;left=0;right=0;bottom=0;fontSize=16;" vertex="1" parent="QAk0c7moUAiWWCxVB_nO-49">
          <mxGeometry y="60" width="311" height="30" as="geometry" />
        </mxCell>
        <mxCell id="QAk0c7moUAiWWCxVB_nO-54" value="" style="shape=partialRectangle;connectable=0;fillColor=none;top=0;left=0;bottom=0;right=0;editable=1;overflow=hidden;whiteSpace=wrap;html=1;fontSize=16;" vertex="1" parent="QAk0c7moUAiWWCxVB_nO-53">
          <mxGeometry width="20" height="30" as="geometry">
            <mxRectangle width="20" height="30" as="alternateBounds" />
          </mxGeometry>
        </mxCell>
        <mxCell id="QAk0c7moUAiWWCxVB_nO-55" value="nom (chaînes de caractères)" style="shape=partialRectangle;connectable=0;fillColor=none;top=0;left=0;bottom=0;right=0;align=left;spacingLeft=6;overflow=hidden;whiteSpace=wrap;html=1;fontSize=16;" vertex="1" parent="QAk0c7moUAiWWCxVB_nO-53">
          <mxGeometry x="20" width="291" height="30" as="geometry">
            <mxRectangle width="291" height="30" as="alternateBounds" />
          </mxGeometry>
        </mxCell>
        <mxCell id="QAk0c7moUAiWWCxVB_nO-56" value="" style="shape=tableRow;horizontal=0;startSize=0;swimlaneHead=0;swimlaneBody=0;fillColor=none;collapsible=0;dropTarget=0;points=[[0,0.5],[1,0.5]];portConstraint=eastwest;top=0;left=0;right=0;bottom=0;fontSize=16;" vertex="1" parent="QAk0c7moUAiWWCxVB_nO-49">
          <mxGeometry y="90" width="311" height="25" as="geometry" />
        </mxCell>
        <mxCell id="QAk0c7moUAiWWCxVB_nO-57" value="" style="shape=partialRectangle;connectable=0;fillColor=none;top=0;left=0;bottom=0;right=0;editable=1;overflow=hidden;whiteSpace=wrap;html=1;fontSize=16;" vertex="1" parent="QAk0c7moUAiWWCxVB_nO-56">
          <mxGeometry width="20" height="25" as="geometry">
            <mxRectangle width="20" height="25" as="alternateBounds" />
          </mxGeometry>
        </mxCell>
        <mxCell id="QAk0c7moUAiWWCxVB_nO-58" value="dates_naissance (date)" style="shape=partialRectangle;connectable=0;fillColor=none;top=0;left=0;bottom=0;right=0;align=left;spacingLeft=6;overflow=hidden;whiteSpace=wrap;html=1;fontSize=16;" vertex="1" parent="QAk0c7moUAiWWCxVB_nO-56">
          <mxGeometry x="20" width="291" height="25" as="geometry">
            <mxRectangle width="291" height="25" as="alternateBounds" />
          </mxGeometry>
        </mxCell>
        <mxCell id="QAk0c7moUAiWWCxVB_nO-59" value="" style="shape=tableRow;horizontal=0;startSize=0;swimlaneHead=0;swimlaneBody=0;fillColor=none;collapsible=0;dropTarget=0;points=[[0,0.5],[1,0.5]];portConstraint=eastwest;top=0;left=0;right=0;bottom=0;fontSize=16;" vertex="1" parent="QAk0c7moUAiWWCxVB_nO-49">
          <mxGeometry y="115" width="311" height="37" as="geometry" />
        </mxCell>
        <mxCell id="QAk0c7moUAiWWCxVB_nO-60" value="" style="shape=partialRectangle;connectable=0;fillColor=none;top=0;left=0;bottom=0;right=0;editable=1;overflow=hidden;whiteSpace=wrap;html=1;fontSize=16;" vertex="1" parent="QAk0c7moUAiWWCxVB_nO-59">
          <mxGeometry width="20" height="37" as="geometry">
            <mxRectangle width="20" height="37" as="alternateBounds" />
          </mxGeometry>
        </mxCell>
        <mxCell id="QAk0c7moUAiWWCxVB_nO-61" value="date_décès (date)" style="shape=partialRectangle;connectable=0;fillColor=none;top=0;left=0;bottom=0;right=0;align=left;spacingLeft=6;overflow=hidden;whiteSpace=wrap;html=1;fontSize=16;" vertex="1" parent="QAk0c7moUAiWWCxVB_nO-59">
          <mxGeometry x="20" width="291" height="37" as="geometry">
            <mxRectangle width="291" height="37" as="alternateBounds" />
          </mxGeometry>
        </mxCell>
        <mxCell id="QAk0c7moUAiWWCxVB_nO-63" value="oeuvres emblématiques&amp;nbsp;" style="shape=table;startSize=30;container=1;collapsible=1;childLayout=tableLayout;fixedRows=1;rowLines=0;fontStyle=1;align=center;resizeLast=1;html=1;fontSize=16;" vertex="1" parent="1">
          <mxGeometry x="619" y="277.5" width="330" height="153" as="geometry" />
        </mxCell>
        <mxCell id="QAk0c7moUAiWWCxVB_nO-64" value="" style="shape=tableRow;horizontal=0;startSize=0;swimlaneHead=0;swimlaneBody=0;fillColor=none;collapsible=0;dropTarget=0;points=[[0,0.5],[1,0.5]];portConstraint=eastwest;top=0;left=0;right=0;bottom=1;fontSize=16;" vertex="1" parent="QAk0c7moUAiWWCxVB_nO-63">
          <mxGeometry y="30" width="330" height="30" as="geometry" />
        </mxCell>
        <mxCell id="QAk0c7moUAiWWCxVB_nO-65" value="" style="shape=partialRectangle;connectable=0;fillColor=none;top=0;left=0;bottom=0;right=0;fontStyle=1;overflow=hidden;whiteSpace=wrap;html=1;fontSize=16;" vertex="1" parent="QAk0c7moUAiWWCxVB_nO-64">
          <mxGeometry width="20" height="30" as="geometry">
            <mxRectangle width="20" height="30" as="alternateBounds" />
          </mxGeometry>
        </mxCell>
        <mxCell id="QAk0c7moUAiWWCxVB_nO-66" value="id_oeuvre_emblématique (entier)" style="shape=partialRectangle;connectable=0;fillColor=none;top=0;left=0;bottom=0;right=0;align=left;spacingLeft=6;fontStyle=5;overflow=hidden;whiteSpace=wrap;html=1;fontSize=16;" vertex="1" parent="QAk0c7moUAiWWCxVB_nO-64">
          <mxGeometry x="20" width="310" height="30" as="geometry">
            <mxRectangle width="310" height="30" as="alternateBounds" />
          </mxGeometry>
        </mxCell>
        <mxCell id="QAk0c7moUAiWWCxVB_nO-67" value="" style="shape=tableRow;horizontal=0;startSize=0;swimlaneHead=0;swimlaneBody=0;fillColor=none;collapsible=0;dropTarget=0;points=[[0,0.5],[1,0.5]];portConstraint=eastwest;top=0;left=0;right=0;bottom=0;fontSize=16;" vertex="1" parent="QAk0c7moUAiWWCxVB_nO-63">
          <mxGeometry y="60" width="330" height="33" as="geometry" />
        </mxCell>
        <mxCell id="QAk0c7moUAiWWCxVB_nO-68" value="" style="shape=partialRectangle;connectable=0;fillColor=none;top=0;left=0;bottom=0;right=0;editable=1;overflow=hidden;whiteSpace=wrap;html=1;fontSize=16;" vertex="1" parent="QAk0c7moUAiWWCxVB_nO-67">
          <mxGeometry width="20" height="33" as="geometry">
            <mxRectangle width="20" height="33" as="alternateBounds" />
          </mxGeometry>
        </mxCell>
        <mxCell id="QAk0c7moUAiWWCxVB_nO-69" value="titre (chaîne de caractères)" style="shape=partialRectangle;connectable=0;fillColor=none;top=0;left=0;bottom=0;right=0;align=left;spacingLeft=6;overflow=hidden;whiteSpace=wrap;html=1;fontSize=16;" vertex="1" parent="QAk0c7moUAiWWCxVB_nO-67">
          <mxGeometry x="20" width="310" height="33" as="geometry">
            <mxRectangle width="310" height="33" as="alternateBounds" />
          </mxGeometry>
        </mxCell>
        <mxCell id="QAk0c7moUAiWWCxVB_nO-70" value="" style="shape=tableRow;horizontal=0;startSize=0;swimlaneHead=0;swimlaneBody=0;fillColor=none;collapsible=0;dropTarget=0;points=[[0,0.5],[1,0.5]];portConstraint=eastwest;top=0;left=0;right=0;bottom=0;fontSize=16;" vertex="1" parent="QAk0c7moUAiWWCxVB_nO-63">
          <mxGeometry y="93" width="330" height="30" as="geometry" />
        </mxCell>
        <mxCell id="QAk0c7moUAiWWCxVB_nO-71" value="" style="shape=partialRectangle;connectable=0;fillColor=none;top=0;left=0;bottom=0;right=0;editable=1;overflow=hidden;whiteSpace=wrap;html=1;fontSize=16;" vertex="1" parent="QAk0c7moUAiWWCxVB_nO-70">
          <mxGeometry width="20" height="30" as="geometry">
            <mxRectangle width="20" height="30" as="alternateBounds" />
          </mxGeometry>
        </mxCell>
        <mxCell id="QAk0c7moUAiWWCxVB_nO-72" value="date (entier)" style="shape=partialRectangle;connectable=0;fillColor=none;top=0;left=0;bottom=0;right=0;align=left;spacingLeft=6;overflow=hidden;whiteSpace=wrap;html=1;fontSize=16;" vertex="1" parent="QAk0c7moUAiWWCxVB_nO-70">
          <mxGeometry x="20" width="310" height="30" as="geometry">
            <mxRectangle width="310" height="30" as="alternateBounds" />
          </mxGeometry>
        </mxCell>
        <mxCell id="QAk0c7moUAiWWCxVB_nO-73" value="" style="shape=tableRow;horizontal=0;startSize=0;swimlaneHead=0;swimlaneBody=0;fillColor=none;collapsible=0;dropTarget=0;points=[[0,0.5],[1,0.5]];portConstraint=eastwest;top=0;left=0;right=0;bottom=0;fontSize=16;" vertex="1" parent="QAk0c7moUAiWWCxVB_nO-63">
          <mxGeometry y="123" width="330" height="30" as="geometry" />
        </mxCell>
        <mxCell id="QAk0c7moUAiWWCxVB_nO-74" value="" style="shape=partialRectangle;connectable=0;fillColor=none;top=0;left=0;bottom=0;right=0;editable=1;overflow=hidden;whiteSpace=wrap;html=1;fontSize=16;" vertex="1" parent="QAk0c7moUAiWWCxVB_nO-73">
          <mxGeometry width="20" height="30" as="geometry">
            <mxRectangle width="20" height="30" as="alternateBounds" />
          </mxGeometry>
        </mxCell>
        <mxCell id="QAk0c7moUAiWWCxVB_nO-75" value="lieu_conservation (chaîne de caractères)" style="shape=partialRectangle;connectable=0;fillColor=none;top=0;left=0;bottom=0;right=0;align=left;spacingLeft=6;overflow=hidden;whiteSpace=wrap;html=1;fontSize=16;" vertex="1" parent="QAk0c7moUAiWWCxVB_nO-73">
          <mxGeometry x="20" width="310" height="30" as="geometry">
            <mxRectangle width="310" height="30" as="alternateBounds" />
          </mxGeometry>
        </mxCell>
        <mxCell id="QAk0c7moUAiWWCxVB_nO-76" value="période artistique&amp;nbsp;" style="shape=table;startSize=30;container=1;collapsible=1;childLayout=tableLayout;fixedRows=1;rowLines=0;fontStyle=1;align=center;resizeLast=1;html=1;fontSize=16;" vertex="1" parent="1">
          <mxGeometry x="70" y="290" width="332" height="150" as="geometry" />
        </mxCell>
        <mxCell id="QAk0c7moUAiWWCxVB_nO-77" value="" style="shape=tableRow;horizontal=0;startSize=0;swimlaneHead=0;swimlaneBody=0;fillColor=none;collapsible=0;dropTarget=0;points=[[0,0.5],[1,0.5]];portConstraint=eastwest;top=0;left=0;right=0;bottom=1;fontSize=16;" vertex="1" parent="QAk0c7moUAiWWCxVB_nO-76">
          <mxGeometry y="30" width="332" height="30" as="geometry" />
        </mxCell>
        <mxCell id="QAk0c7moUAiWWCxVB_nO-78" value="" style="shape=partialRectangle;connectable=0;fillColor=none;top=0;left=0;bottom=0;right=0;fontStyle=1;overflow=hidden;whiteSpace=wrap;html=1;fontSize=16;" vertex="1" parent="QAk0c7moUAiWWCxVB_nO-77">
          <mxGeometry width="30" height="30" as="geometry">
            <mxRectangle width="30" height="30" as="alternateBounds" />
          </mxGeometry>
        </mxCell>
        <mxCell id="QAk0c7moUAiWWCxVB_nO-79" value="id_période_artistique (entier)" style="shape=partialRectangle;connectable=0;fillColor=none;top=0;left=0;bottom=0;right=0;align=left;spacingLeft=6;fontStyle=5;overflow=hidden;whiteSpace=wrap;html=1;fontSize=16;" vertex="1" parent="QAk0c7moUAiWWCxVB_nO-77">
          <mxGeometry x="30" width="302" height="30" as="geometry">
            <mxRectangle width="302" height="30" as="alternateBounds" />
          </mxGeometry>
        </mxCell>
        <mxCell id="QAk0c7moUAiWWCxVB_nO-80" value="" style="shape=tableRow;horizontal=0;startSize=0;swimlaneHead=0;swimlaneBody=0;fillColor=none;collapsible=0;dropTarget=0;points=[[0,0.5],[1,0.5]];portConstraint=eastwest;top=0;left=0;right=0;bottom=0;fontSize=16;" vertex="1" parent="QAk0c7moUAiWWCxVB_nO-76">
          <mxGeometry y="60" width="332" height="30" as="geometry" />
        </mxCell>
        <mxCell id="QAk0c7moUAiWWCxVB_nO-81" value="" style="shape=partialRectangle;connectable=0;fillColor=none;top=0;left=0;bottom=0;right=0;editable=1;overflow=hidden;whiteSpace=wrap;html=1;fontSize=16;" vertex="1" parent="QAk0c7moUAiWWCxVB_nO-80">
          <mxGeometry width="30" height="30" as="geometry">
            <mxRectangle width="30" height="30" as="alternateBounds" />
          </mxGeometry>
        </mxCell>
        <mxCell id="QAk0c7moUAiWWCxVB_nO-82" value="dates (entier)" style="shape=partialRectangle;connectable=0;fillColor=none;top=0;left=0;bottom=0;right=0;align=left;spacingLeft=6;overflow=hidden;whiteSpace=wrap;html=1;fontSize=16;" vertex="1" parent="QAk0c7moUAiWWCxVB_nO-80">
          <mxGeometry x="30" width="302" height="30" as="geometry">
            <mxRectangle width="302" height="30" as="alternateBounds" />
          </mxGeometry>
        </mxCell>
        <mxCell id="QAk0c7moUAiWWCxVB_nO-83" value="" style="shape=tableRow;horizontal=0;startSize=0;swimlaneHead=0;swimlaneBody=0;fillColor=none;collapsible=0;dropTarget=0;points=[[0,0.5],[1,0.5]];portConstraint=eastwest;top=0;left=0;right=0;bottom=0;fontSize=16;" vertex="1" parent="QAk0c7moUAiWWCxVB_nO-76">
          <mxGeometry y="90" width="332" height="26" as="geometry" />
        </mxCell>
        <mxCell id="QAk0c7moUAiWWCxVB_nO-84" value="" style="shape=partialRectangle;connectable=0;fillColor=none;top=0;left=0;bottom=0;right=0;editable=1;overflow=hidden;whiteSpace=wrap;html=1;fontSize=16;" vertex="1" parent="QAk0c7moUAiWWCxVB_nO-83">
          <mxGeometry width="30" height="26" as="geometry">
            <mxRectangle width="30" height="26" as="alternateBounds" />
          </mxGeometry>
        </mxCell>
        <mxCell id="QAk0c7moUAiWWCxVB_nO-85" value="id_artiste#" style="shape=partialRectangle;connectable=0;fillColor=none;top=0;left=0;bottom=0;right=0;align=left;spacingLeft=6;overflow=hidden;whiteSpace=wrap;html=1;fontSize=16;" vertex="1" parent="QAk0c7moUAiWWCxVB_nO-83">
          <mxGeometry x="30" width="302" height="26" as="geometry">
            <mxRectangle width="302" height="26" as="alternateBounds" />
          </mxGeometry>
        </mxCell>
        <mxCell id="QAk0c7moUAiWWCxVB_nO-86" value="" style="shape=tableRow;horizontal=0;startSize=0;swimlaneHead=0;swimlaneBody=0;fillColor=none;collapsible=0;dropTarget=0;points=[[0,0.5],[1,0.5]];portConstraint=eastwest;top=0;left=0;right=0;bottom=0;fontSize=16;" vertex="1" parent="QAk0c7moUAiWWCxVB_nO-76">
          <mxGeometry y="116" width="332" height="34" as="geometry" />
        </mxCell>
        <mxCell id="QAk0c7moUAiWWCxVB_nO-87" value="" style="shape=partialRectangle;connectable=0;fillColor=none;top=0;left=0;bottom=0;right=0;editable=1;overflow=hidden;whiteSpace=wrap;html=1;fontSize=16;" vertex="1" parent="QAk0c7moUAiWWCxVB_nO-86">
          <mxGeometry width="30" height="34" as="geometry">
            <mxRectangle width="30" height="34" as="alternateBounds" />
          </mxGeometry>
        </mxCell>
        <mxCell id="QAk0c7moUAiWWCxVB_nO-88" value="nom (entier)&amp;nbsp;" style="shape=partialRectangle;connectable=0;fillColor=none;top=0;left=0;bottom=0;right=0;align=left;spacingLeft=6;overflow=hidden;whiteSpace=wrap;html=1;fontSize=16;" vertex="1" parent="QAk0c7moUAiWWCxVB_nO-86">
          <mxGeometry x="30" width="302" height="34" as="geometry">
            <mxRectangle width="302" height="34" as="alternateBounds" />
          </mxGeometry>
        </mxCell>
        <mxCell id="QAk0c7moUAiWWCxVB_nO-89" value="" style="endArrow=none;html=1;rounded=0;fontSize=12;startSize=8;endSize=8;curved=1;entryX=0;entryY=0.5;entryDx=0;entryDy=0;" edge="1" parent="1" target="QAk0c7moUAiWWCxVB_nO-56">
          <mxGeometry relative="1" as="geometry">
            <mxPoint x="200" y="103" as="sourcePoint" />
            <mxPoint x="346" y="102" as="targetPoint" />
          </mxGeometry>
        </mxCell>
        <mxCell id="QAk0c7moUAiWWCxVB_nO-91" value="N" style="resizable=0;html=1;whiteSpace=wrap;align=right;verticalAlign=bottom;fontSize=16;" connectable="0" vertex="1" parent="QAk0c7moUAiWWCxVB_nO-89">
          <mxGeometry x="1" relative="1" as="geometry" />
        </mxCell>
        <mxCell id="QAk0c7moUAiWWCxVB_nO-94" value="" style="endArrow=none;html=1;rounded=0;fontSize=12;startSize=8;endSize=8;curved=1;" edge="1" parent="1">
          <mxGeometry relative="1" as="geometry">
            <mxPoint x="200" y="99.5" as="sourcePoint" />
            <mxPoint x="200" y="277.5" as="targetPoint" />
          </mxGeometry>
        </mxCell>
        <mxCell id="QAk0c7moUAiWWCxVB_nO-95" value="N" style="resizable=0;html=1;whiteSpace=wrap;align=right;verticalAlign=bottom;fontSize=16;" connectable="0" vertex="1" parent="QAk0c7moUAiWWCxVB_nO-94">
          <mxGeometry x="1" relative="1" as="geometry" />
        </mxCell>
        <mxCell id="QAk0c7moUAiWWCxVB_nO-103" value="" style="endArrow=none;html=1;rounded=0;fontSize=12;startSize=8;endSize=8;curved=1;entryX=0;entryY=0.5;entryDx=0;entryDy=0;exitX=1.003;exitY=0.192;exitDx=0;exitDy=0;exitPerimeter=0;" edge="1" parent="1" source="QAk0c7moUAiWWCxVB_nO-83" target="QAk0c7moUAiWWCxVB_nO-70">
          <mxGeometry relative="1" as="geometry">
            <mxPoint x="413" y="386" as="sourcePoint" />
            <mxPoint x="581.5" y="384" as="targetPoint" />
          </mxGeometry>
        </mxCell>
        <mxCell id="QAk0c7moUAiWWCxVB_nO-104" value="N" style="resizable=0;html=1;whiteSpace=wrap;align=left;verticalAlign=bottom;fontSize=16;" connectable="0" vertex="1" parent="QAk0c7moUAiWWCxVB_nO-103">
          <mxGeometry x="-1" relative="1" as="geometry" />
        </mxCell>
        <mxCell id="QAk0c7moUAiWWCxVB_nO-105" value="N" style="resizable=0;html=1;whiteSpace=wrap;align=right;verticalAlign=bottom;fontSize=16;" connectable="0" vertex="1" parent="QAk0c7moUAiWWCxVB_nO-103">
          <mxGeometry x="1" relative="1" as="geometry" />
        </mxCell>
        <mxCell id="QAk0c7moUAiWWCxVB_nO-106" value="" style="endArrow=none;html=1;rounded=0;fontSize=12;startSize=8;endSize=8;curved=1;entryX=0.5;entryY=0;entryDx=0;entryDy=0;" edge="1" parent="1" target="QAk0c7moUAiWWCxVB_nO-63">
          <mxGeometry relative="1" as="geometry">
            <mxPoint x="784" y="95" as="sourcePoint" />
            <mxPoint x="781.5" y="274.5" as="targetPoint" />
          </mxGeometry>
        </mxCell>
        <mxCell id="QAk0c7moUAiWWCxVB_nO-107" value="1" style="resizable=0;html=1;whiteSpace=wrap;align=left;verticalAlign=bottom;fontSize=16;" connectable="0" vertex="1" parent="QAk0c7moUAiWWCxVB_nO-106">
          <mxGeometry x="-1" relative="1" as="geometry">
            <mxPoint x="-16" y="133" as="offset" />
          </mxGeometry>
        </mxCell>
        <mxCell id="QAk0c7moUAiWWCxVB_nO-108" value="N" style="resizable=0;html=1;whiteSpace=wrap;align=right;verticalAlign=bottom;fontSize=16;" connectable="0" vertex="1" parent="QAk0c7moUAiWWCxVB_nO-106">
          <mxGeometry x="1" relative="1" as="geometry" />
        </mxCell>
        <mxCell id="QAk0c7moUAiWWCxVB_nO-110" value="" style="endArrow=none;html=1;rounded=0;fontSize=12;startSize=8;endSize=8;curved=1;exitX=1.003;exitY=0.16;exitDx=0;exitDy=0;exitPerimeter=0;" edge="1" parent="1" source="QAk0c7moUAiWWCxVB_nO-56">
          <mxGeometry relative="1" as="geometry">
            <mxPoint x="682" y="95" as="sourcePoint" />
            <mxPoint x="784" y="95" as="targetPoint" />
          </mxGeometry>
        </mxCell>
      </root>
    </mxGraphModel>
  </diagram>
</mxfile>
